VIDEO INFO:


Format                           : Matroska
File size                        : 4.31 GiB
Duration                         : 1h 41mn
Overall bit rate                 : 6 083 Kbps
Encoded date                     : UTC 2011-07-08 21:41:44
Writing application              : mkvmerge v4.7.0 ('Just Like You Imagined') gemaakt op Apr 21 2011 01:13:14
Writing library                  : libebml v1.2.0 + libmatroska v1.1.0

Video
ID                               : 1
Format                           : AVC
Format/Info                      : Advanced Video Codec
Format profile                   : High@L4.1
Format settings, CABAC           : Yes
Format settings, ReFrames        : 9 frames
Muxing mode                      : Header stripping
Codec ID                         : V_MPEG4/ISO/AVC
Duration                         : 1h 41mn
Bit rate                         : 5 578 Kbps
Width                            : 1 280 pixels
Height                           : 720 pixels
Display aspect ratio             : 16:9
Frame rate                       : 23.976 fps
Color space                      : YUV
Chroma subsampling               : 4:2:0
Bit depth                        : 8 bits
Scan type                        : Progressive
Bits/(Pixel*Frame)               : 0.252
Stream size                      : 3.95 GiB (92%)
Title                            : Prince.of.Darkness.1987.720p.HDTV.DD2.0.x264
Language                         : English

Audio
ID                               : 2
Format                           : AC-3
Format/Info                      : Audio Coding 3
Mode extension                   : CM (complete main)
Muxing mode                      : Header stripping
Codec ID                         : A_AC3
Duration                         : 1h 41mn
Bit rate mode                    : Constant
Bit rate                         : 384 Kbps
Channel(s)                       : 2 channels
Channel positions                : Front: L R
Sampling rate                    : 48.0 KHz
Bit depth                        : 16 bits
Compression mode                 : Lossy
Video delay                      : 32ms
Stream size                      : 279 MiB (6%)
Title                            : English DD 2.0 384 Kbps
Language                         : English

Verenigde Staten
Horror
102 minuten

geregisseerd door John Carpenter
met Donald Pleasence, Jameson Parker en Victor Wong

Een sinister geheim is jaren verborgen gehouden door een verlaten kerk in Los Angeles. Door de dood van een priester van een mysterieuze sekte, neemt een andere priester een kijkje in de kelder van de kerk en ontdekt een vat met groene vloeistof. De priester vraagt een groep mensen om op onderzoek uit te gaan. Langzamerhand wordt duidelijk wat er in het vat zit. Het blijkt dat er zombies ontstaan uit het groene spul die proberen om Satan te bevrijden. Aan de groep is het de taak dit te voorkomen.

Ondertiteling: Nederlands (.srt formaat en apart bij de torrent bijgevoegd)